<svg width="387" height="281" viewBox="0 0 387 281" fill="none" xmlns="http://www.w3.org/2000/svg">
<g filter="url(#filter0_d_386_2464)">
<rect x="63" y="83" width="261" height="164" rx="10" fill="#5655B9"/>
</g>
<g filter="url(#filter1_d_386_2464)">
<rect x="50" y="61" width="287" height="178" rx="10" fill="#FF4267"/>
</g>
<g filter="url(#filter2_d_386_2464)">
<path d="M342.783 26H44.2174C36.3653 26 30 32.2557 30 39.9726V216.027C30 223.744 36.3653 230 44.2174 230H342.783C350.635 230 357 223.744 357 216.027V39.9726C357 32.2557 350.635 26 342.783 26Z" fill="#1573FF"/>
<mask id="mask0_386_2464" style="mask-type:alpha" maskUnits="userSpaceOnUse" x="30" y="26" width="327" height="204">
<path d="M342.783 26H44.2174C36.3653 26 30 32.2557 30 39.9726V216.027C30 223.744 36.3653 230 44.2174 230H342.783C350.635 230 357 223.744 357 216.027V39.9726C357 32.2557 350.635 26 342.783 26Z" fill="#DAEBFF"/>
</mask>
<g mask="url(#mask0_386_2464)">
<path d="M75.8988 348.172C173.489 348.172 252.601 270.422 252.601 174.513C252.601 78.6031 173.489 0.853027 75.8988 0.853027C-21.6909 0.853027 -100.803 78.6031 -100.803 174.513C-100.803 270.422 -21.6909 348.172 75.8988 348.172Z" fill="#1E1671"/>
<path d="M348.878 153.749C401.599 153.749 444.338 111.746 444.338 59.9327C444.338 8.1194 401.599 -33.8835 348.878 -33.8835C296.157 -33.8835 253.418 8.1194 253.418 59.9327C253.418 111.746 296.157 153.749 348.878 153.749Z" fill="#4EB4FF"/>
<path fill-rule="evenodd" clip-rule="evenodd" d="M293.346 198.394L297.046 187.87V187.871H301.041L295.104 203.345H291.108L287.72 190.029C290.114 191.321 292.259 193.924 292.943 196.319L293.346 198.394ZM302.564 187.87L300.201 203.36H303.977L306.339 187.87H302.564ZM313.954 194.18C312.635 193.493 311.826 193.03 311.826 192.327C311.842 191.689 312.51 191.035 314.001 191.035C315.228 191.002 316.13 191.306 316.814 191.608L317.157 191.769L317.67 188.528C316.924 188.225 315.742 187.89 314.281 187.89C310.552 187.89 307.926 189.933 307.91 192.855C307.879 195.011 309.79 196.207 311.22 196.925C312.68 197.661 313.178 198.138 313.178 198.793C313.162 199.797 311.996 200.26 310.909 200.26C309.403 200.26 308.594 200.022 307.366 199.462L306.868 199.223L306.34 202.592C307.227 203.007 308.859 203.373 310.552 203.391C314.515 203.391 317.094 201.379 317.126 198.266C317.139 196.557 316.132 195.249 313.954 194.18ZM324.43 187.918H327.352L330.397 203.373H326.901L326.335 200.287H321.901L320.81 203.36H316.846L322.456 189.164C322.846 188.19 323.53 187.918 324.43 187.918ZM323 197.183C323.081 197.175 324.521 192.167 324.521 192.167L325.672 197.183H323Z" fill="white"/>
<path d="M291.697 189.979C291.426 188.73 290.564 187.888 289.393 187.87H283.897L283.841 188.173C288.128 189.428 291.726 193.291 292.893 196.924L291.697 189.979Z" fill="white"/>
</g>
</g>
<path d="M60.4215 56.5026V69.0786C60.4215 70.4706 60.0215 71.5746 59.2215 72.3906C58.4375 73.1906 57.3335 73.5906 55.9095 73.5906C54.3735 73.5906 53.1655 73.1426 52.2855 72.2466C51.4215 71.3346 50.9895 70.0626 50.9895 68.4306H53.1735C53.1735 69.4066 53.3895 70.1826 53.8215 70.7586C54.2535 71.3186 54.9175 71.5986 55.8135 71.5986C56.6615 71.5986 57.2775 71.3586 57.6615 70.8786C58.0455 70.3986 58.2375 69.7986 58.2375 69.0786V56.5026H60.4215ZM69.7905 60.0786C71.0545 60.0786 72.1825 60.3506 73.1745 60.8946C74.1825 61.4386 74.9665 62.2226 75.5265 63.2466C76.1025 64.2706 76.3905 65.4706 76.3905 66.8466C76.3905 68.2226 76.1025 69.4226 75.5265 70.4466C74.9665 71.4546 74.1825 72.2306 73.1745 72.7746C72.1825 73.3186 71.0545 73.5906 69.7905 73.5906C68.5265 73.5906 67.3905 73.3186 66.3825 72.7746C65.3905 72.2306 64.6065 71.4546 64.0305 70.4466C63.4545 69.4226 63.1665 68.2226 63.1665 66.8466C63.1665 65.4706 63.4545 64.2706 64.0305 63.2466C64.6065 62.2226 65.3905 61.4386 66.3825 60.8946C67.3905 60.3506 68.5265 60.0786 69.7905 60.0786ZM69.7905 61.9986C69.0065 61.9986 68.2785 62.1746 67.6065 62.5266C66.9505 62.8786 66.4145 63.4226 65.9985 64.1586C65.5985 64.8786 65.3985 65.7746 65.3985 66.8466C65.3985 67.9026 65.5985 68.7986 65.9985 69.5346C66.4145 70.2546 66.9505 70.7906 67.6065 71.1426C68.2785 71.4946 69.0065 71.6706 69.7905 71.6706C70.5745 71.6706 71.2945 71.4946 71.9505 71.1426C72.6225 70.7906 73.1585 70.2546 73.5585 69.5346C73.9745 68.7986 74.1825 67.9026 74.1825 66.8466C74.1825 65.7746 73.9745 64.8786 73.5585 64.1586C73.1585 63.4226 72.6225 62.8786 71.9505 62.5266C71.2945 62.1746 70.5745 61.9986 69.7905 61.9986ZM86.1724 60.0306C87.7084 60.0306 88.9484 60.5266 89.8924 61.5186C90.8364 62.4946 91.3084 63.9106 91.3084 65.7666V73.4226H89.1244V65.9586C89.1244 64.6466 88.7884 63.6386 88.1164 62.9346C87.4444 62.2306 86.5324 61.8786 85.3804 61.8786C84.1804 61.8786 83.2204 62.2706 82.5004 63.0546C81.7804 63.8226 81.4204 64.9506 81.4204 66.4386V73.4226H79.2364V55.6626H81.4204V63.3666C81.7564 62.2946 82.3484 61.4706 83.1964 60.8946C84.0604 60.3186 85.0524 60.0306 86.1724 60.0306ZM101.594 60.0306C103.13 60.0306 104.37 60.5266 105.314 61.5186C106.258 62.4946 106.73 63.9106 106.73 65.7666V73.4226H104.546V65.9586C104.546 64.6466 104.21 63.6386 103.538 62.9346C102.866 62.2306 101.954 61.8786 100.802 61.8786C99.6023 61.8786 98.6423 62.2706 97.9223 63.0546C97.2023 63.8226 96.8423 64.9506 96.8423 66.4386V73.4226H94.6583V60.2466H96.8423V63.3666C97.1783 62.2946 97.7703 61.4706 98.6183 60.8946C99.4823 60.3186 100.474 60.0306 101.594 60.0306ZM126.714 69.0306C126.714 69.8306 126.522 70.5746 126.138 71.2626C125.754 71.9506 125.17 72.5106 124.386 72.9426C123.602 73.3746 122.634 73.5906 121.482 73.5906C120.362 73.5906 119.362 73.3906 118.482 72.9906C117.618 72.5746 116.922 72.0146 116.394 71.3106C115.882 70.5906 115.586 69.7746 115.506 68.8626H117.834C117.882 69.3426 118.042 69.8146 118.314 70.2786C118.602 70.7266 119.002 71.1026 119.514 71.4066C120.042 71.6946 120.674 71.8386 121.41 71.8386C122.37 71.8386 123.106 71.5826 123.618 71.0706C124.13 70.5586 124.386 69.9026 124.386 69.1026C124.386 68.4146 124.202 67.8546 123.834 67.4226C123.482 66.9906 123.042 66.6546 122.514 66.4146C121.986 66.1586 121.266 65.8866 120.354 65.5986C119.282 65.2466 118.418 64.9186 117.762 64.6146C117.122 64.2946 116.57 63.8226 116.106 63.1986C115.658 62.5746 115.434 61.7506 115.434 60.7266C115.434 59.8466 115.642 59.0706 116.058 58.3986C116.49 57.7266 117.098 57.2066 117.882 56.8386C118.682 56.4706 119.618 56.2866 120.69 56.2866C122.354 56.2866 123.674 56.6946 124.65 57.5106C125.626 58.3106 126.194 59.3346 126.354 60.5826H124.002C123.874 59.9106 123.53 59.3186 122.97 58.8066C122.41 58.2946 121.65 58.0386 120.69 58.0386C119.81 58.0386 119.106 58.2706 118.578 58.7346C118.05 59.1826 117.786 59.8226 117.786 60.6546C117.786 61.3106 117.954 61.8466 118.29 62.2626C118.642 62.6626 119.074 62.9826 119.586 63.2226C120.098 63.4466 120.802 63.7026 121.698 63.9906C122.786 64.3426 123.658 64.6786 124.314 64.9986C124.986 65.3186 125.554 65.8066 126.018 66.4626C126.482 67.1026 126.714 67.9586 126.714 69.0306ZM145.85 60.0306C147.386 60.0306 148.618 60.5266 149.546 61.5186C150.49 62.4946 150.962 63.9106 150.962 65.7666V73.4226H148.778V65.9586C148.778 64.6626 148.458 63.6706 147.818 62.9826C147.194 62.2946 146.33 61.9506 145.226 61.9506C144.074 61.9506 143.146 62.3346 142.442 63.1026C141.754 63.8546 141.41 64.9666 141.41 66.4386V73.4226H139.226V65.9586C139.226 64.6626 138.906 63.6706 138.266 62.9826C137.626 62.2946 136.762 61.9506 135.674 61.9506C134.506 61.9506 133.57 62.3346 132.866 63.1026C132.178 63.8546 131.834 64.9666 131.834 66.4386V73.4226H129.65V60.2466H131.834V63.2466C132.154 62.2066 132.722 61.4146 133.538 60.8706C134.37 60.3106 135.322 60.0306 136.394 60.0306C137.514 60.0306 138.482 60.3186 139.298 60.8946C140.13 61.4546 140.722 62.2866 141.074 63.3906C141.442 62.3186 142.058 61.4946 142.922 60.9186C143.786 60.3266 144.762 60.0306 145.85 60.0306ZM153.97 56.3826C153.97 55.9826 154.106 55.6626 154.378 55.4226C154.65 55.1666 155.01 55.0386 155.458 55.0386C155.906 55.0386 156.266 55.1666 156.538 55.4226C156.81 55.6626 156.946 55.9826 156.946 56.3826C156.946 56.7826 156.81 57.1106 156.538 57.3666C156.266 57.6066 155.906 57.7266 155.458 57.7266C155.01 57.7266 154.65 57.6066 154.378 57.3666C154.106 57.1106 153.97 56.7826 153.97 56.3826ZM156.538 60.2466V73.4226H154.354V60.2466H156.538ZM166.337 71.5026V73.4226H164.705C163.361 73.4226 162.353 73.1026 161.681 72.4626C161.025 71.8226 160.697 70.7506 160.697 69.2466V62.1426H158.729V60.2466H160.697V56.9586H162.905V60.2466H166.313V62.1426H162.905V69.2946C162.905 70.1426 163.057 70.7266 163.361 71.0466C163.681 71.3506 164.225 71.5026 164.993 71.5026H166.337ZM175.938 60.0306C177.474 60.0306 178.714 60.5266 179.658 61.5186C180.602 62.4946 181.074 63.9106 181.074 65.7666V73.4226H178.89V65.9586C178.89 64.6466 178.554 63.6386 177.882 62.9346C177.21 62.2306 176.298 61.8786 175.146 61.8786C173.946 61.8786 172.986 62.2706 172.266 63.0546C171.546 63.8226 171.186 64.9506 171.186 66.4386V73.4226H169.002V55.6626H171.186V63.3666C171.522 62.2946 172.114 61.4706 172.962 60.8946C173.826 60.3186 174.818 60.0306 175.938 60.0306Z" fill="white"/>
<path d="M57.2975 129.682H53.1255L52.3695 131.824H50.6615L54.3015 122.094H56.1355L59.7615 131.824H58.0535L57.2975 129.682ZM56.8495 128.45L55.2115 123.83L53.5735 128.45H56.8495ZM70.5925 123.984C71.5071 123.984 72.2351 124.274 72.7765 124.852C73.3271 125.431 73.6025 126.257 73.6025 127.33V131.824H72.0065V127.498C72.0065 126.826 71.8385 126.308 71.5025 125.944C71.1665 125.571 70.7045 125.384 70.1165 125.384C69.4911 125.384 68.9918 125.585 68.6185 125.986C68.2545 126.378 68.0725 126.957 68.0725 127.722V131.824H66.4765V127.498C66.4765 126.826 66.3085 126.308 65.9725 125.944C65.6365 125.571 65.1745 125.384 64.5865 125.384C63.9611 125.384 63.4618 125.585 63.0885 125.986C62.7245 126.378 62.5425 126.957 62.5425 127.722V131.824H60.9465V124.11H62.5425V125.72C62.7385 125.16 63.0651 124.731 63.5225 124.432C63.9798 124.134 64.5165 123.984 65.1325 123.984C65.7765 123.984 66.3318 124.143 66.7985 124.46C67.2745 124.778 67.6198 125.235 67.8345 125.832C68.0585 125.254 68.4178 124.801 68.9125 124.474C69.4071 124.148 69.9671 123.984 70.5925 123.984ZM78.56 124.012C79.26 124.012 79.8573 124.185 80.352 124.53C80.8467 124.876 81.1967 125.333 81.402 125.902V124.11H82.998V131.824H81.402V130.032C81.1967 130.602 80.8467 131.059 80.352 131.404C79.8573 131.75 79.26 131.922 78.56 131.922C77.888 131.922 77.286 131.764 76.754 131.446C76.2313 131.129 75.8207 130.672 75.522 130.074C75.2233 129.477 75.074 128.772 75.074 127.96C75.074 127.158 75.2233 126.458 75.522 125.86C75.8207 125.263 76.2313 124.806 76.754 124.488C77.286 124.171 77.888 124.012 78.56 124.012ZM79.05 125.412C78.3407 125.412 77.7713 125.641 77.342 126.098C76.922 126.546 76.712 127.167 76.712 127.96C76.712 128.754 76.922 129.379 77.342 129.836C77.7713 130.284 78.3407 130.508 79.05 130.508C79.498 130.508 79.8993 130.406 80.254 130.2C80.6087 129.986 80.8887 129.687 81.094 129.304C81.2993 128.922 81.402 128.474 81.402 127.96C81.402 127.456 81.2993 127.013 81.094 126.63C80.8887 126.238 80.6087 125.94 80.254 125.734C79.8993 125.52 79.498 125.412 79.05 125.412ZM86.0613 130.48H90.0233V131.824H84.2973V130.55L88.0493 125.454H84.3953V124.11H89.8833V125.384L86.0613 130.48ZM94.867 124.012C95.6137 124.012 96.2857 124.171 96.883 124.488C97.4804 124.806 97.947 125.263 98.283 125.86C98.619 126.458 98.787 127.158 98.787 127.96C98.787 128.772 98.619 129.477 98.283 130.074C97.947 130.672 97.4804 131.129 96.883 131.446C96.2857 131.764 95.6137 131.922 94.867 131.922C94.1204 131.922 93.4484 131.764 92.851 131.446C92.263 131.129 91.7964 130.672 91.451 130.074C91.115 129.468 90.947 128.763 90.947 127.96C90.947 127.158 91.115 126.458 91.451 125.86C91.7964 125.263 92.263 124.806 92.851 124.488C93.4484 124.171 94.1204 124.012 94.867 124.012ZM94.867 125.398C94.4564 125.398 94.0784 125.492 93.733 125.678C93.3877 125.865 93.1077 126.154 92.893 126.546C92.6877 126.929 92.585 127.4 92.585 127.96C92.585 128.53 92.6877 129.006 92.893 129.388C93.1077 129.771 93.3877 130.056 93.733 130.242C94.0784 130.429 94.4564 130.522 94.867 130.522C95.2777 130.522 95.6557 130.429 96.001 130.242C96.3464 130.056 96.6217 129.771 96.827 129.388C97.0417 129.006 97.149 128.53 97.149 127.96C97.149 127.4 97.0417 126.929 96.827 126.546C96.6217 126.154 96.3464 125.865 96.001 125.678C95.6557 125.492 95.2777 125.398 94.867 125.398ZM104.633 123.984C105.529 123.984 106.248 124.274 106.789 124.852C107.331 125.431 107.601 126.257 107.601 127.33V131.824H106.005V127.498C106.005 126.808 105.828 126.276 105.473 125.902C105.119 125.52 104.633 125.328 104.017 125.328C103.383 125.328 102.874 125.534 102.491 125.944C102.109 126.346 101.917 126.938 101.917 127.722V131.824H100.321V124.11H101.917V125.804C102.123 125.226 102.468 124.778 102.953 124.46C103.439 124.143 103.999 123.984 104.633 123.984ZM114.345 127.988V131.824H112.749V121.94H116.109C117.248 121.94 118.102 122.211 118.671 122.752C119.25 123.294 119.539 124.036 119.539 124.978C119.539 125.912 119.245 126.649 118.657 127.19C118.069 127.722 117.22 127.988 116.109 127.988H114.345ZM115.941 126.686C117.257 126.686 117.915 126.117 117.915 124.978C117.915 124.418 117.757 123.994 117.439 123.704C117.131 123.406 116.632 123.256 115.941 123.256H114.345V126.686H115.941ZM122.535 121.464V131.824H120.939V121.464H122.535ZM127.56 124.012C128.26 124.012 128.857 124.185 129.352 124.53C129.847 124.876 130.197 125.333 130.402 125.902V124.11H131.998V131.824H130.402V130.032C130.197 130.602 129.847 131.059 129.352 131.404C128.857 131.75 128.26 131.922 127.56 131.922C126.888 131.922 126.286 131.764 125.754 131.446C125.231 131.129 124.821 130.672 124.522 130.074C124.223 129.477 124.074 128.772 124.074 127.96C124.074 127.158 124.223 126.458 124.522 125.86C124.821 125.263 125.231 124.806 125.754 124.488C126.286 124.171 126.888 124.012 127.56 124.012ZM128.05 125.412C127.341 125.412 126.771 125.641 126.342 126.098C125.922 126.546 125.712 127.167 125.712 127.96C125.712 128.754 125.922 129.379 126.342 129.836C126.771 130.284 127.341 130.508 128.05 130.508C128.498 130.508 128.899 130.406 129.254 130.2C129.609 129.986 129.889 129.687 130.094 129.304C130.299 128.922 130.402 128.474 130.402 127.96C130.402 127.456 130.299 127.013 130.094 126.63C129.889 126.238 129.609 125.94 129.254 125.734C128.899 125.52 128.498 125.412 128.05 125.412ZM137.791 130.438V131.824H136.811C135.99 131.824 135.365 131.628 134.935 131.236C134.515 130.835 134.305 130.172 134.305 129.248V125.468H133.199V124.11H134.305V122.192H135.915V124.11H137.777V125.468H135.915V129.276C135.915 129.715 135.995 130.018 136.153 130.186C136.321 130.354 136.611 130.438 137.021 130.438H137.791ZM139.062 121.87C139.062 121.6 139.156 121.376 139.342 121.198C139.529 121.021 139.776 120.932 140.084 120.932C140.392 120.932 140.64 121.021 140.826 121.198C141.022 121.376 141.12 121.6 141.12 121.87C141.12 122.141 141.022 122.36 140.826 122.528C140.64 122.696 140.392 122.78 140.084 122.78C139.776 122.78 139.529 122.696 139.342 122.528C139.156 122.36 139.062 122.141 139.062 121.87ZM140.882 124.11V131.824H139.286V124.11H140.882ZM147.126 123.984C148.022 123.984 148.74 124.274 149.282 124.852C149.823 125.431 150.094 126.257 150.094 127.33V131.824H148.498V127.498C148.498 126.808 148.32 126.276 147.966 125.902C147.611 125.52 147.126 125.328 146.51 125.328C145.875 125.328 145.366 125.534 144.984 125.944C144.601 126.346 144.41 126.938 144.41 127.722V131.824H142.814V124.11H144.41V125.804C144.615 125.226 144.96 124.778 145.446 124.46C145.931 124.143 146.491 123.984 147.126 123.984ZM151.736 121.87C151.736 121.6 151.829 121.376 152.016 121.198C152.203 121.021 152.45 120.932 152.758 120.932C153.066 120.932 153.313 121.021 153.5 121.198C153.696 121.376 153.794 121.6 153.794 121.87C153.794 122.141 153.696 122.36 153.5 122.528C153.313 122.696 153.066 122.78 152.758 122.78C152.45 122.78 152.203 122.696 152.016 122.528C151.829 122.36 151.736 122.141 151.736 121.87ZM153.556 124.11V131.824H151.96V124.11H153.556ZM162.599 124.11V131.824H160.989V130.144C160.793 130.714 160.453 131.157 159.967 131.474C159.482 131.782 158.917 131.936 158.273 131.936C157.377 131.936 156.659 131.647 156.117 131.068C155.576 130.49 155.305 129.664 155.305 128.59V124.11H156.901V128.422C156.901 129.122 157.079 129.664 157.433 130.046C157.788 130.42 158.273 130.606 158.889 130.606C159.524 130.606 160.033 130.401 160.415 129.99C160.798 129.58 160.989 128.982 160.989 128.198V124.11H162.599ZM174.157 123.984C175.072 123.984 175.8 124.274 176.341 124.852C176.892 125.431 177.167 126.257 177.167 127.33V131.824H175.571V127.498C175.571 126.826 175.403 126.308 175.067 125.944C174.731 125.571 174.269 125.384 173.681 125.384C173.056 125.384 172.556 125.585 172.183 125.986C171.819 126.378 171.637 126.957 171.637 127.722V131.824H170.041V127.498C170.041 126.826 169.873 126.308 169.537 125.944C169.201 125.571 168.739 125.384 168.151 125.384C167.526 125.384 167.026 125.585 166.653 125.986C166.289 126.378 166.107 126.957 166.107 127.722V131.824H164.511V124.11H166.107V125.72C166.303 125.16 166.63 124.731 167.087 124.432C167.544 124.134 168.081 123.984 168.697 123.984C169.341 123.984 169.896 124.143 170.363 124.46C170.839 124.778 171.184 125.235 171.399 125.832C171.623 125.254 171.982 124.801 172.477 124.474C172.972 124.148 173.532 123.984 174.157 123.984Z" fill="white"/>
<path d="M50.7975 163.365V162.149L56.5895 154.597H58.1575V162.101H59.8215V163.365H58.1575V165.957H56.6855V163.365H50.7975ZM56.7815 156.373L52.3335 162.101H56.7815V156.373ZM67.8394 155.733L63.5674 165.957H62.0314L66.3674 155.877H60.4474V154.613H67.8394V155.733ZM76.8291 155.829H71.0371V159.605C71.3038 159.242 71.6878 158.954 72.1891 158.741C72.6905 158.527 73.2398 158.421 73.8371 158.421C74.6371 158.421 75.2985 158.591 75.8211 158.933C76.3545 159.263 76.7438 159.706 76.9891 160.261C77.2451 160.805 77.3731 161.413 77.3731 162.085C77.3731 163.247 77.0478 164.197 76.3971 164.933C75.7465 165.669 74.7918 166.037 73.5331 166.037C72.4025 166.037 71.4798 165.733 70.7651 165.125C70.0505 164.506 69.6505 163.679 69.5651 162.645H71.0051C71.1225 163.306 71.3945 163.823 71.8211 164.197C72.2585 164.559 72.8078 164.741 73.4691 164.741C74.2905 164.741 74.9091 164.495 75.3251 164.005C75.7411 163.514 75.9491 162.869 75.9491 162.069C75.9491 161.29 75.7358 160.682 75.3091 160.245C74.8825 159.807 74.2798 159.589 73.5011 159.589C72.9465 159.589 72.4611 159.711 72.0451 159.957C71.6291 160.191 71.3145 160.511 71.1011 160.917H69.6931V154.533H76.8291V155.829ZM85.4565 157.685C85.3712 157.013 85.1418 156.495 84.7685 156.133C84.4058 155.759 83.8992 155.573 83.2485 155.573C82.3418 155.573 81.6538 155.925 81.1845 156.629C80.7258 157.333 80.4965 158.447 80.4965 159.973L80.5125 160.565C80.6725 159.925 81.0405 159.418 81.6165 159.045C82.1925 158.661 82.8698 158.469 83.6485 158.469C84.7685 158.469 85.6432 158.805 86.2725 159.477C86.9125 160.149 87.2325 161.087 87.2325 162.293C87.2325 162.997 87.0938 163.637 86.8165 164.213C86.5392 164.778 86.1125 165.231 85.5365 165.573C84.9712 165.903 84.2672 166.069 83.4245 166.069C81.8138 166.069 80.7045 165.562 80.0965 164.549C79.4992 163.535 79.2005 162.159 79.2005 160.421C79.2005 158.415 79.5205 156.911 80.1605 155.909C80.8112 154.895 81.8672 154.389 83.3285 154.389C84.4058 154.389 85.2325 154.693 85.8085 155.301C86.3952 155.909 86.7418 156.703 86.8485 157.685H85.4565ZM80.6725 162.053C80.6725 162.831 80.8965 163.487 81.3445 164.021C81.8032 164.543 82.4858 164.805 83.3925 164.805C84.1392 164.805 84.7365 164.586 85.1845 164.149C85.6325 163.701 85.8565 163.077 85.8565 162.277C85.8565 161.413 85.6325 160.757 85.1845 160.309C84.7365 159.85 84.1178 159.621 83.3285 159.621C82.8805 159.621 82.4538 159.711 82.0485 159.893C81.6432 160.074 81.3125 160.351 81.0565 160.725C80.8005 161.087 80.6725 161.53 80.6725 162.053Z" fill="white"/>
<path d="M205.123 162.789C205.219 163.461 205.453 163.978 205.827 164.341C206.2 164.703 206.712 164.885 207.363 164.885C208.259 164.885 208.936 164.538 209.395 163.845C209.853 163.151 210.083 162.053 210.083 160.549C210.083 160.261 210.077 160.042 210.067 159.893C209.917 160.533 209.555 161.045 208.979 161.429C208.403 161.813 207.725 162.005 206.947 162.005C205.827 162.005 204.947 161.669 204.307 160.997C203.667 160.325 203.347 159.386 203.347 158.181C203.347 157.477 203.485 156.837 203.763 156.261C204.04 155.685 204.461 155.231 205.027 154.901C205.603 154.559 206.312 154.389 207.155 154.389C208.776 154.389 209.885 154.89 210.483 155.893C211.091 156.885 211.395 158.25 211.395 159.989C211.395 161.973 211.085 163.487 210.467 164.533C209.848 165.567 208.813 166.085 207.363 166.085C206.285 166.085 205.437 165.781 204.819 165.173C204.211 164.554 203.853 163.759 203.747 162.789H205.123ZM209.923 158.405C209.923 157.637 209.693 156.986 209.235 156.453C208.787 155.919 208.109 155.653 207.203 155.653C206.456 155.653 205.859 155.877 205.411 156.325C204.963 156.773 204.739 157.397 204.739 158.197C204.739 159.05 204.963 159.706 205.411 160.165C205.859 160.623 206.472 160.853 207.251 160.853C207.699 160.853 208.125 160.762 208.531 160.581C208.947 160.399 209.283 160.122 209.539 159.749C209.795 159.375 209.923 158.927 209.923 158.405ZM213.209 160.245C213.209 162.058 213.508 163.471 214.105 164.485C214.702 165.498 215.737 166.005 217.209 166.005C218.681 166.005 219.716 165.498 220.313 164.485C220.921 163.471 221.225 162.058 221.225 160.245C221.225 158.453 220.921 157.05 220.313 156.037C219.716 155.023 218.681 154.517 217.209 154.517C215.737 154.517 214.702 155.023 214.105 156.037C213.508 157.039 213.209 158.442 213.209 160.245ZM219.785 160.245C219.785 161.173 219.716 161.951 219.577 162.581C219.449 163.199 219.198 163.695 218.825 164.069C218.452 164.442 217.913 164.629 217.209 164.629C216.516 164.629 215.982 164.442 215.609 164.069C215.236 163.695 214.98 163.199 214.841 162.581C214.713 161.951 214.649 161.173 214.649 160.245C214.649 159.327 214.713 158.559 214.841 157.941C214.98 157.322 215.236 156.831 215.609 156.469C215.982 156.095 216.516 155.909 217.209 155.909C217.913 155.909 218.452 156.095 218.825 156.469C219.198 156.831 219.449 157.322 219.577 157.941C219.716 158.559 219.785 159.327 219.785 160.245ZM222.333 156.037V154.677H225.565V165.957H224.029V156.037H222.333ZM227.855 157.333C227.855 156.778 228.004 156.271 228.303 155.813C228.602 155.354 229.044 154.991 229.631 154.725C230.218 154.458 230.916 154.325 231.727 154.325C232.538 154.325 233.231 154.458 233.807 154.725C234.394 154.991 234.836 155.354 235.135 155.813C235.434 156.271 235.583 156.778 235.583 157.333C235.583 157.962 235.412 158.506 235.071 158.965C234.73 159.423 234.212 159.749 233.519 159.941C234.266 160.143 234.847 160.495 235.263 160.997C235.679 161.498 235.887 162.117 235.887 162.853C235.887 163.919 235.508 164.757 234.751 165.365C233.994 165.973 232.986 166.277 231.727 166.277C230.468 166.277 229.46 165.973 228.703 165.365C227.946 164.757 227.567 163.919 227.567 162.853C227.567 162.117 227.77 161.498 228.175 160.997C228.591 160.495 229.172 160.143 229.919 159.941C229.226 159.749 228.708 159.423 228.367 158.965C228.026 158.506 227.855 157.962 227.855 157.333ZM229.295 157.541C229.295 158.181 229.514 158.677 229.951 159.029C230.388 159.37 230.98 159.541 231.727 159.541C232.474 159.541 233.06 159.37 233.487 159.029C233.924 158.677 234.143 158.181 234.143 157.541C234.143 156.901 233.924 156.41 233.487 156.069C233.05 155.717 232.463 155.541 231.727 155.541C230.991 155.541 230.399 155.717 229.951 156.069C229.514 156.41 229.295 156.901 229.295 157.541ZM228.991 162.773C228.991 163.498 229.236 164.063 229.727 164.469C230.218 164.863 230.884 165.061 231.727 165.061C232.559 165.061 233.22 164.858 233.711 164.453C234.202 164.047 234.447 163.487 234.447 162.773C234.447 162.047 234.191 161.498 233.679 161.125C233.167 160.751 232.516 160.565 231.727 160.565C230.927 160.565 230.271 160.751 229.759 161.125C229.247 161.498 228.991 162.047 228.991 162.773Z" fill="white"/>
<path d="M134.504 161.744C134.496 161.217 134.644 160.7 134.932 160.258C135.219 159.816 135.631 159.469 136.116 159.262C136.602 159.054 137.138 158.996 137.656 159.093C138.175 159.191 138.653 159.441 139.029 159.81C139.405 160.18 139.662 160.653 139.768 161.169C139.874 161.685 139.824 162.221 139.624 162.709C139.424 163.196 139.083 163.614 138.645 163.907C138.206 164.201 137.69 164.357 137.163 164.357C136.463 164.363 135.79 164.091 135.291 163.6C134.793 163.11 134.509 162.442 134.504 161.744ZM124.537 161.744C124.529 161.217 124.678 160.7 124.965 160.258C125.252 159.816 125.665 159.469 126.15 159.262C126.635 159.054 127.171 158.996 127.69 159.093C128.208 159.191 128.686 159.441 129.062 159.81C129.438 160.18 129.696 160.653 129.802 161.169C129.908 161.685 129.857 162.221 129.657 162.709C129.457 163.196 129.117 163.614 128.678 163.907C128.24 164.201 127.724 164.357 127.196 164.357C126.85 164.36 126.506 164.295 126.185 164.165C125.864 164.035 125.571 163.843 125.324 163.601C125.078 163.358 124.881 163.069 124.746 162.75C124.611 162.432 124.54 162.09 124.537 161.744H124.537ZM114.567 161.744C114.558 161.217 114.707 160.7 114.994 160.258C115.282 159.816 115.694 159.469 116.179 159.262C116.664 159.054 117.2 158.996 117.719 159.093C118.238 159.191 118.715 159.441 119.091 159.81C119.468 160.18 119.725 160.653 119.831 161.169C119.937 161.685 119.887 162.221 119.687 162.709C119.487 163.196 119.146 163.614 118.707 163.907C118.269 164.201 117.753 164.357 117.226 164.357C116.526 164.363 115.853 164.091 115.354 163.6C114.855 163.11 114.572 162.442 114.567 161.744ZM104.6 161.744C104.592 161.217 104.741 160.7 105.028 160.258C105.315 159.816 105.728 159.469 106.213 159.262C106.698 159.054 107.234 158.996 107.753 159.093C108.271 159.191 108.749 159.441 109.125 159.81C109.501 160.18 109.759 160.653 109.865 161.169C109.97 161.685 109.92 162.221 109.72 162.709C109.52 163.196 109.179 163.614 108.741 163.907C108.303 164.201 107.787 164.357 107.259 164.357C106.913 164.36 106.569 164.295 106.248 164.165C105.927 164.035 105.634 163.843 105.387 163.601C105.14 163.358 104.944 163.069 104.809 162.75C104.673 162.432 104.603 162.09 104.6 161.744H104.6Z" fill="white"/>
<path d="M181.03 161.74C181.022 161.213 181.171 160.696 181.458 160.254C181.745 159.812 182.158 159.465 182.643 159.258C183.128 159.051 183.664 158.992 184.182 159.09C184.701 159.188 185.179 159.437 185.555 159.807C185.931 160.176 186.188 160.649 186.294 161.166C186.4 161.682 186.35 162.218 186.15 162.705C185.95 163.193 185.609 163.61 185.171 163.904C184.733 164.197 184.217 164.354 183.689 164.354C182.989 164.359 182.316 164.087 181.817 163.597C181.319 163.107 181.035 162.439 181.03 161.74ZM171.06 161.74C171.051 161.213 171.2 160.696 171.487 160.254C171.775 159.812 172.187 159.465 172.672 159.258C173.157 159.051 173.693 158.992 174.212 159.09C174.731 159.188 175.208 159.437 175.584 159.807C175.961 160.176 176.218 160.649 176.324 161.166C176.43 161.682 176.38 162.218 176.18 162.705C175.98 163.193 175.639 163.61 175.2 163.904C174.762 164.197 174.246 164.354 173.719 164.354C173.019 164.359 172.346 164.087 171.847 163.597C171.348 163.107 171.065 162.439 171.06 161.74ZM161.093 161.74C161.085 161.213 161.234 160.696 161.521 160.254C161.808 159.812 162.22 159.465 162.706 159.258C163.191 159.051 163.727 158.992 164.245 159.09C164.764 159.188 165.242 159.437 165.618 159.807C165.994 160.176 166.251 160.649 166.357 161.166C166.463 161.682 166.413 162.218 166.213 162.705C166.013 163.193 165.672 163.61 165.234 163.904C164.795 164.197 164.28 164.354 163.752 164.354C163.052 164.359 162.379 164.087 161.88 163.597C161.382 163.107 161.098 162.439 161.093 161.74ZM151.122 161.74C151.114 161.213 151.263 160.696 151.55 160.254C151.837 159.812 152.25 159.465 152.735 159.258C153.22 159.051 153.756 158.992 154.275 159.09C154.793 159.188 155.271 159.437 155.647 159.807C156.023 160.176 156.281 160.649 156.387 161.166C156.493 161.682 156.442 162.218 156.242 162.705C156.042 163.193 155.701 163.61 155.263 163.904C154.825 164.197 154.309 164.354 153.781 164.354C153.082 164.359 152.408 164.087 151.91 163.597C151.411 163.107 151.128 162.439 151.122 161.74Z" fill="white"/>
<path d="M57.4175 188.801C58.3642 189.095 59.1375 189.381 59.7375 189.661C60.3375 189.941 60.8442 190.361 61.2575 190.921C61.6842 191.468 61.8975 192.188 61.8975 193.081C61.8975 193.801 61.7108 194.468 61.3375 195.081C60.9642 195.681 60.4042 196.168 59.6575 196.541C58.9108 196.901 58.0042 197.081 56.9375 197.081H56.9175V198.681H56.1575V197.041C54.7708 196.921 53.6375 196.495 52.7575 195.761C51.8908 195.015 51.4108 194.048 51.3175 192.861H54.3175C54.3708 193.341 54.5575 193.768 54.8775 194.141C55.1975 194.501 55.6242 194.735 56.1575 194.841V190.921L55.7575 190.801C54.7975 190.521 54.0175 190.248 53.4175 189.981C52.8308 189.701 52.3242 189.288 51.8975 188.741C51.4842 188.181 51.2775 187.448 51.2775 186.541C51.2775 185.755 51.4842 185.068 51.8975 184.481C52.3242 183.895 52.9042 183.441 53.6375 183.121C54.3842 182.801 55.2242 182.635 56.1575 182.621V180.941H56.9175V182.641C58.3042 182.735 59.4042 183.141 60.2175 183.861C61.0442 184.568 61.5108 185.475 61.6175 186.581H58.5775C58.5108 186.141 58.3308 185.768 58.0375 185.461C57.7575 185.141 57.3842 184.935 56.9175 184.841V188.641L57.4175 188.801ZM54.2975 186.421C54.2975 186.901 54.4575 187.295 54.7775 187.601C55.0975 187.895 55.5575 188.155 56.1575 188.381V184.781C55.5708 184.808 55.1108 184.961 54.7775 185.241C54.4575 185.521 54.2975 185.915 54.2975 186.421ZM56.9175 194.921C57.5308 194.908 58.0108 194.741 58.3575 194.421C58.7042 194.088 58.8775 193.661 58.8775 193.141C58.8775 192.648 58.7042 192.255 58.3575 191.961C58.0242 191.655 57.5442 191.395 56.9175 191.181V194.921ZM68.7231 182.281C69.6831 182.281 70.5031 182.448 71.1831 182.781C71.8765 183.115 72.3965 183.575 72.7431 184.161C73.1031 184.748 73.2831 185.401 73.2831 186.121C73.2831 187.028 73.0365 187.775 72.5431 188.361C72.0498 188.935 71.3965 189.288 70.5831 189.421V189.521C72.5565 190.108 73.5431 191.268 73.5431 193.001C73.5431 194.215 73.1365 195.201 72.3231 195.961C71.5098 196.708 70.3631 197.081 68.8831 197.081C67.3098 197.081 66.0565 196.695 65.1231 195.921C64.1898 195.135 63.6698 193.955 63.5631 192.381H66.3231C66.3898 193.101 66.6231 193.675 67.0231 194.101C67.4365 194.515 68.0165 194.721 68.7631 194.721C69.4031 194.721 69.9031 194.548 70.2631 194.201C70.6231 193.841 70.8031 193.375 70.8031 192.801C70.8031 192.121 70.5431 191.601 70.0231 191.241C69.5031 190.881 68.7365 190.701 67.7231 190.701H67.1431V188.401H67.7231C69.5898 188.428 70.5231 187.781 70.5231 186.461C70.5231 185.888 70.3565 185.441 70.0231 185.121C69.6898 184.788 69.2365 184.621 68.6631 184.621C68.0631 184.621 67.5698 184.815 67.1831 185.201C66.7965 185.575 66.5765 186.101 66.5231 186.781H63.7631C63.8431 185.341 64.3098 184.235 65.1631 183.461C66.0165 182.675 67.2031 182.281 68.7231 182.281ZM78.2958 194.001V196.941H75.2558V194.001H78.2958ZM79.6745 194.101V191.761L86.4345 182.661H89.4545V191.661H91.2945V194.101H89.4545V196.941H86.6145V194.101H79.6745ZM86.8345 185.961L82.5545 191.661H86.8345V185.961ZM100.361 186.661C100.148 185.275 99.4414 184.581 98.2414 184.581C97.3081 184.581 96.6281 184.995 96.2014 185.821C95.7747 186.635 95.5881 187.915 95.6414 189.661C95.8547 189.021 96.2681 188.515 96.8814 188.141C97.5081 187.755 98.2347 187.561 99.0614 187.561C100.421 187.561 101.488 187.975 102.261 188.801C103.048 189.615 103.441 190.775 103.441 192.281C103.441 193.215 103.255 194.041 102.881 194.761C102.508 195.481 101.948 196.048 101.201 196.461C100.468 196.875 99.5747 197.081 98.5214 197.081C96.4681 197.081 95.0547 196.448 94.2814 195.181C93.5081 193.901 93.1214 192.141 93.1214 189.901C93.1214 187.328 93.5347 185.421 94.3614 184.181C95.2014 182.941 96.5547 182.321 98.4214 182.321C99.8481 182.321 100.941 182.728 101.701 183.541C102.461 184.355 102.895 185.395 103.001 186.661H100.361ZM95.8814 192.081C95.8814 192.828 96.0947 193.448 96.5214 193.941C96.9614 194.421 97.6014 194.661 98.4414 194.661C99.1614 194.661 99.7347 194.448 100.161 194.021C100.588 193.595 100.801 193.001 100.801 192.241C100.801 191.441 100.581 190.828 100.141 190.401C99.7147 189.975 99.1347 189.761 98.4014 189.761C97.7081 189.761 97.1147 189.961 96.6214 190.361C96.1281 190.761 95.8814 191.335 95.8814 192.081ZM108.361 192.741C108.575 194.128 109.295 194.821 110.521 194.821C111.455 194.821 112.128 194.415 112.541 193.601C112.955 192.775 113.135 191.488 113.081 189.741C112.868 190.381 112.448 190.895 111.821 191.281C111.208 191.655 110.488 191.841 109.661 191.841C108.301 191.841 107.228 191.435 106.441 190.621C105.668 189.795 105.281 188.628 105.281 187.121C105.281 186.201 105.468 185.381 105.841 184.661C106.215 183.928 106.768 183.355 107.501 182.941C108.248 182.528 109.148 182.321 110.201 182.321C112.255 182.321 113.668 182.948 114.441 184.201C115.215 185.441 115.601 187.168 115.601 189.381C115.601 191.901 115.208 193.815 114.421 195.121C113.648 196.428 112.348 197.081 110.521 197.081C109.548 197.081 108.708 196.888 108.001 196.501C107.308 196.115 106.768 195.595 106.381 194.941C106.008 194.275 105.788 193.541 105.721 192.741H108.361ZM112.841 187.321C112.841 186.575 112.621 185.961 112.181 185.481C111.755 184.988 111.121 184.741 110.281 184.741C109.561 184.741 108.988 184.955 108.561 185.381C108.135 185.808 107.921 186.401 107.921 187.161C107.921 187.961 108.135 188.581 108.561 189.021C109.001 189.448 109.588 189.661 110.321 189.661C111.001 189.661 111.588 189.461 112.081 189.061C112.588 188.648 112.841 188.068 112.841 187.321ZM120.132 194.001V196.941H117.092V194.001H120.132ZM131.77 185.021H125.07V188.581C125.377 188.221 125.797 187.935 126.33 187.721C126.877 187.495 127.477 187.381 128.13 187.381C129.104 187.381 129.91 187.595 130.55 188.021C131.204 188.435 131.684 188.995 131.99 189.701C132.31 190.395 132.47 191.168 132.47 192.021C132.47 193.528 132.044 194.735 131.19 195.641C130.35 196.548 129.144 197.001 127.57 197.001C126.544 197.001 125.65 196.821 124.89 196.461C124.13 196.088 123.537 195.575 123.11 194.921C122.684 194.255 122.45 193.481 122.41 192.601H125.15C125.257 193.201 125.504 193.681 125.89 194.041C126.277 194.388 126.79 194.561 127.43 194.561C128.204 194.561 128.777 194.328 129.15 193.861C129.537 193.381 129.73 192.748 129.73 191.961C129.73 191.215 129.53 190.635 129.13 190.221C128.73 189.808 128.164 189.601 127.43 189.601C126.897 189.601 126.444 189.721 126.07 189.961C125.697 190.188 125.424 190.495 125.25 190.881H122.51V182.541H131.77V185.021ZM134.127 194.721C138.647 191.588 140.907 188.988 140.907 186.921C140.907 186.295 140.753 185.801 140.447 185.441C140.153 185.081 139.687 184.901 139.047 184.901C137.727 184.901 137.027 185.801 136.947 187.601H134.207C134.287 185.935 134.793 184.675 135.727 183.821C136.66 182.955 137.84 182.521 139.267 182.521C140.72 182.521 141.833 182.901 142.607 183.661C143.393 184.408 143.787 185.408 143.787 186.661C143.787 187.648 143.493 188.641 142.907 189.641C142.333 190.628 141.6 191.541 140.707 192.381C139.813 193.208 138.873 193.921 137.887 194.521H144.067V196.821H134.127V194.721Z" fill="white"/>
<defs>
<filter id="filter0_d_386_2464" x="33" y="57" width="321" height="224" filterUnits="userSpaceOnUse" color-interpolation-filters="sRGB">
<feFlood flood-opacity="0" result="BackgroundImageFix"/>
<feColorMatrix in="SourceAlpha" type="matrix" values="0 0 0 0 0 0 0 0 0 0 0 0 0 0 0 0 0 0 127 0" result="hardAlpha"/>
<feOffset dy="4"/>
<feGaussianBlur stdDeviation="15"/>
<feColorMatrix type="matrix" values="0 0 0 0 0.211765 0 0 0 0 0.160784 0 0 0 0 0.717647 0 0 0 0.07 0"/>
<feBlend mode="normal" in2="BackgroundImageFix" result="effect1_dropShadow_386_2464"/>
<feBlend mode="normal" in="SourceGraphic" in2="effect1_dropShadow_386_2464" result="shape"/>
</filter>
<filter id="filter1_d_386_2464" x="20" y="35" width="347" height="238" filterUnits="userSpaceOnUse" color-interpolation-filters="sRGB">
<feFlood flood-opacity="0" result="BackgroundImageFix"/>
<feColorMatrix in="SourceAlpha" type="matrix" values="0 0 0 0 0 0 0 0 0 0 0 0 0 0 0 0 0 0 127 0" result="hardAlpha"/>
<feOffset dy="4"/>
<feGaussianBlur stdDeviation="15"/>
<feColorMatrix type="matrix" values="0 0 0 0 0.211765 0 0 0 0 0.160784 0 0 0 0 0.717647 0 0 0 0.07 0"/>
<feBlend mode="normal" in2="BackgroundImageFix" result="effect1_dropShadow_386_2464"/>
<feBlend mode="normal" in="SourceGraphic" in2="effect1_dropShadow_386_2464" result="shape"/>
</filter>
<filter id="filter2_d_386_2464" x="0" y="0" width="387" height="264" filterUnits="userSpaceOnUse" color-interpolation-filters="sRGB">
<feFlood flood-opacity="0" result="BackgroundImageFix"/>
<feColorMatrix in="SourceAlpha" type="matrix" values="0 0 0 0 0 0 0 0 0 0 0 0 0 0 0 0 0 0 127 0" result="hardAlpha"/>
<feOffset dy="4"/>
<feGaussianBlur stdDeviation="15"/>
<feColorMatrix type="matrix" values="0 0 0 0 0.211765 0 0 0 0 0.160784 0 0 0 0 0.717647 0 0 0 0.07 0"/>
<feBlend mode="normal" in2="BackgroundImageFix" result="effect1_dropShadow_386_2464"/>
<feBlend mode="normal" in="SourceGraphic" in2="effect1_dropShadow_386_2464" result="shape"/>
</filter>
</defs>
</svg>
