<svg width="44" height="44" viewBox="0 0 44 44" fill="none" xmlns="http://www.w3.org/2000/svg">
<path d="M42.779 26.9777C39.9044 38.6408 28.1416 45.7617 16.5029 42.8796C14.913 42.4856 13.4076 41.9259 12.0007 41.2218C10.2314 40.3383 8.61798 39.2264 7.18832 37.9347C5.9118 36.782 4.78213 35.484 3.81776 34.0758C3.52288 33.6456 3.24332 33.2048 2.98102 32.7538C1.82465 30.7757 0.978087 28.6154 0.489624 26.3511C0.393816 25.9088 0.311358 25.4632 0.244214 25.0142C-0.171608 22.2714 -0.0667698 19.4022 0.638439 16.5422C0.702835 16.2808 0.772732 16.0207 0.848907 15.7621C4.04277 4.56302 15.5401 -2.17649 26.9145 0.639908C29.7138 1.33299 32.2503 2.54204 34.4488 4.13954C34.8733 4.4485 35.2856 4.77123 35.6845 5.10891C37.4279 6.58087 38.9188 8.31258 40.1133 10.2289C40.3767 10.6512 40.6253 11.0818 40.8593 11.5214C41.6917 13.0842 42.3357 14.7498 42.7692 16.4827C43.216 18.2692 43.4394 20.1268 43.4155 22.016C43.3978 23.3954 43.2482 24.7914 42.9565 26.189C42.9035 26.4539 42.8434 26.7168 42.779 26.9777Z" fill="#FDD462"/>
<path d="M38.55 25.9313C38.486 26.1902 38.4154 26.4476 38.3427 26.7019C35.7304 35.5513 26.5764 40.8764 17.5485 38.6409C8.52055 36.4054 2.89419 27.4201 4.69373 18.3692C4.74753 18.1102 4.80446 17.8493 4.86847 17.5903C7.16275 8.28234 16.5837 2.58106 25.87 4.8807C35.1563 7.17994 40.8443 16.6229 38.55 25.9313Z" fill="#F37E00"/>
<path d="M38.3427 26.7018C35.7304 35.5513 26.5764 40.8763 17.5485 38.6408C17.3463 38.5908 17.148 38.5365 16.9497 38.4798C14.9534 37.9103 13.1339 37.0075 11.5357 35.8449C9.93764 34.6819 8.56216 33.2619 7.45645 31.6585C7.17531 31.2515 6.91183 30.8339 6.66407 30.4026C5.54618 28.4438 4.80053 26.2701 4.50643 23.9933C4.43379 23.4482 4.38823 22.8944 4.37017 22.3403C4.32384 21.0316 4.42985 19.701 4.69332 18.3695C7.30605 9.52006 16.46 4.19269 25.488 6.42817C26.6298 6.71115 27.7175 7.10275 28.7446 7.5896C29.2673 7.83637 29.7758 8.1099 30.2662 8.40626C32.2695 9.61453 33.9815 11.2057 35.3279 13.0559C35.6185 13.4554 35.8933 13.8682 36.1497 14.2941C37.1475 15.9408 37.8751 17.7528 38.2862 19.6561C38.6863 21.5118 38.7868 23.4509 38.5485 25.4089C38.4982 25.8383 38.4287 26.2709 38.3427 26.7018Z" fill="#F7A219"/>
<path d="M21.6907 31.916L20.9997 34.7206L17.4454 33.8406L18.1054 31.1623C15.6219 30.3866 13.3453 29.0988 12.0632 27.7894L15.0502 23.9179C16.4708 25.3151 18.5334 26.4962 20.4743 26.9767C22.1631 27.3951 22.8554 27.1912 23.005 26.5847C23.5531 24.3614 13.3559 23.7396 14.9811 17.1449C15.6847 14.2899 18.3434 12.4016 22.6205 12.844L23.2994 10.0901L26.8538 10.9702L26.1874 13.6736C28.0093 14.3124 29.7056 15.242 30.9433 16.4062L28.0887 20.2832C26.5671 18.9683 25.0346 18.1332 23.4969 17.7522C21.7575 17.3216 21.0786 17.6896 20.929 18.2957C20.406 20.4182 30.5969 21.0653 28.9902 27.5836C28.3176 30.3134 25.7661 32.2014 21.6907 31.916Z" fill="#F37E00"/>
<path d="M21.8168 30.9578L21.1258 33.7624L17.5715 32.8824L18.2315 30.2041C15.748 29.4284 13.4713 28.1407 12.1893 26.8312L15.1763 22.9597C16.5969 24.3572 18.6595 25.538 20.6004 26.0185C22.2892 26.4369 22.9815 26.2326 23.1311 25.6265C23.6792 23.4032 13.482 22.7814 15.1071 16.1871C15.8108 13.3321 18.4695 11.4438 22.7466 11.8861L23.4255 9.13232L26.9799 10.0123L26.3135 12.7158C28.1354 13.3546 29.8317 14.2842 31.0694 15.4484L28.2148 19.3258C26.6936 18.0109 25.1607 17.1757 23.6231 16.7948C21.8836 16.3642 21.2047 16.7322 21.0551 17.3383C20.5321 19.4608 30.723 20.1079 29.1163 26.6266C28.4437 29.3552 25.8922 31.2432 21.8168 30.9578Z" fill="#FDD462"/>
</svg>
